HIERARCHY
ROOT reference
{
  OFFSET 0 0 0
  CHANNELS 6 Xposition Yposition Zposition Zrotation Xrotation Yrotation
  JOINT Hips
  {
    OFFSET 44.6805 85.9651 -20.1189
    CHANNELS 3 Zrotation Xrotation Yrotation
    JOINT RightUpLeg
    {
      OFFSET -9.20028 -1.61905 0.0313892
      CHANNELS 3 Zrotation Xrotation Yrotation
      JOINT RightLeg
      {
        OFFSET 0.0920446 -41.8676 0.113709
        CHANNELS 3 Zrotation Xrotation Yrotation
        JOINT RightFoot
        {
          OFFSET -0.78009 -42.2818 -0.985537
          CHANNELS 3 Zrotation Xrotation Yrotation
          End Site
          {
            OFFSET 0 -7.69 17.5
          }
        }
      }
    }
    JOINT LeftUpLeg
    {
      OFFSET 9.33559 -1.63058 -0.0435578
      CHANNELS 3 Zrotation Xrotation Yrotation
      JOINT LeftLeg
      {
        OFFSET 0.124601 -41.8685 -0.0153308
        CHANNELS 3 Zrotation Xrotation Yrotation
        JOINT LeftFoot
        {
          OFFSET -0.885525 -42.178 -0.480441
          CHANNELS 3 Zrotation Xrotation Yrotation
          End Site
          {
            OFFSET 0 -7.69 17.5
          }
        }
      }
    }
    JOINT Spine
    {
      OFFSET -0.030151 14.2977 0.0632059
      CHANNELS 3 Zrotation Xrotation Yrotation
      JOINT Spine1
      {
        OFFSET -0.0449239 9.71163 -4.69081e-05
        CHANNELS 3 Zrotation Xrotation Yrotation
        JOINT Spine2
        {
          OFFSET 0.0275009 10.1133 -0.0283136
          CHANNELS 3 Zrotation Xrotation Yrotation
          JOINT Spine3
          {
            OFFSET 0.0288761 9.7229 -0.000806902
            CHANNELS 3 Zrotation Xrotation Yrotation
            JOINT Neck
            {
              OFFSET -0.0518603 10.2949 0.241895
              CHANNELS 3 Zrotation Xrotation Yrotation
              JOINT Head
              {
                OFFSET -0.275401 9.55953 0.0709142
                CHANNELS 3 Zrotation Xrotation Yrotation
                End Site
                {
                  OFFSET 0 15.95 0
                }
              }
            }
            JOINT RightShoulder
            {
              OFFSET -3.17286 6.95881 0.00543218
              CHANNELS 3 Zrotation Xrotation Yrotation
              JOINT RightArm
              {
                OFFSET -12.7612 0.039846 0.0411956
                CHANNELS 3 Zrotation Xrotation Yrotation
                JOINT RightForeArm
                {
                  OFFSET -26.5517 0.0729849 0.08211
                  CHANNELS 3 Zrotation Xrotation Yrotation
                  JOINT RightHand
                  {
                    OFFSET -26.0042 -0.0197864 0.0403594
                    CHANNELS 3 Zrotation Xrotation Yrotation
                    JOINT RightHandThumb1
                    {
                      OFFSET -2.48905 0.190105 3.12053
                      CHANNELS 3 Zrotation Xrotation Yrotation
                      JOINT RightHandThumb2
                      {
                        OFFSET -3.68274 0 0
                        CHANNELS 3 Zrotation Xrotation Yrotation
                        JOINT RightHandThumb3
                        {
                          OFFSET -2.55832 0 0
                          CHANNELS 3 Zrotation Xrotation Yrotation
                          End Site
                          {
                            OFFSET -2.194 0 0
                          }
                        }
                      }
                    }
                    JOINT RightInHandIndex
                    {
                      OFFSET -3.22368 0.508421 1.97842
                      CHANNELS 3 Zrotation Xrotation Yrotation
                      JOINT RightHandIndex1
                      {
                        OFFSET -5.21684 -0.091368 0.999158
                        CHANNELS 3 Zrotation Xrotation Yrotation
                        JOINT RightHandIndex2
                        {
                          OFFSET -3.61937 0 0
                          CHANNELS 3 Zrotation Xrotation Yrotation
                          JOINT RightHandIndex3
                          {
                            OFFSET -2.0521 0 0
                            CHANNELS 3 Zrotation Xrotation Yrotation
                            End Site
                            {
                              OFFSET -1.805 0 0
                            }
                          }
                        }
                      }
                    }
                    JOINT RightInHandMiddle
                    {
                      OFFSET -3.38211 0.517263 0.756737
                      CHANNELS 3 Zrotation Xrotation Yrotation
                      JOINT RightHandMiddle1
                      {
                        OFFSET -5.17411 -0.084 0.313895
                        CHANNELS 3 Zrotation Xrotation Yrotation
                        JOINT RightHandMiddle2
                        {
                          OFFSET -3.94947 0 0
                          CHANNELS 3 Zrotation Xrotation Yrotation
                          JOINT RightHandMiddle3
                          {
                            OFFSET -2.47579 0 0
                            CHANNELS 3 Zrotation Xrotation Yrotation
                            End Site
                            {
                              OFFSET -1.975 0 0
                            }
                          }
                        }
                      }
                    }
                    JOINT RightInHandRing
                    {
                      OFFSET -3.36516 0.537895 -0.128947
                      CHANNELS 3 Zrotation Xrotation Yrotation
                      JOINT RightHandRing1
                      {
                        OFFSET -4.63474 -0.022105 -0.478947
                        CHANNELS 3 Zrotation Xrotation Yrotation
                        JOINT RightHandRing2
                        {
                          OFFSET -3.44238 0 0
                          CHANNELS 3 Zrotation Xrotation Yrotation
                          JOINT RightHandRing3
                          {
                            OFFSET -2.3881 0 0
                            CHANNELS 3 Zrotation Xrotation Yrotation
                            End Site
                            {
                              OFFSET -1.857 0 0
                            }
                          }
                        }
                      }
                    }
                    JOINT RightInHandPinky
                    {
                      OFFSET -3.16105 0.469368 -1.20179
                      CHANNELS 3 Zrotation Xrotation Yrotation
                      JOINT RightHandPinky1
                      {
                        OFFSET -4.14105 -0.022105 -1.09053
                        CHANNELS 3 Zrotation Xrotation Yrotation
                        JOINT RightHandPinky2
                        {
                          OFFSET -2.75653 0 0
                          CHANNELS 3 Zrotation Xrotation Yrotation
                          JOINT RightHandPinky3
                          {
                            OFFSET -1.74189 0 0
                            CHANNELS 3 Zrotation Xrotation Yrotation
                            End Site
                            {
                              OFFSET -1.645 0 0
                            }
                          }
                        }
                      }
                    }
                  }
                }
              }
            }
            JOINT LeftShoulder
            {
              OFFSET 3.22572 6.89245 -0.0537601
              CHANNELS 3 Zrotation Xrotation Yrotation
              JOINT LeftArm
              {
                OFFSET 12.8183 -0.0506887 -0.111983
                CHANNELS 3 Zrotation Xrotation Yrotation
                JOINT LeftForeArm
                {
                  OFFSET 26.4786 -0.0502099 0.0159937
                  CHANNELS 3 Zrotation Xrotation Yrotation
                  JOINT LeftHand
                  {
                    OFFSET 25.8931 -0.161185 0.0946899
                    CHANNELS 3 Zrotation Xrotation Yrotation
                    JOINT LeftHandThumb1
                    {
                      OFFSET 2.48905 0.190105 3.12053
                      CHANNELS 3 Zrotation Xrotation Yrotation
                      JOINT LeftHandThumb2
                      {
                        OFFSET 3.68274 0 0
                        CHANNELS 3 Zrotation Xrotation Yrotation
                        JOINT LeftHandThumb3
                        {
                          OFFSET 2.55832 0 0
                          CHANNELS 3 Zrotation Xrotation Yrotation
                          End Site
                          {
                            OFFSET 2.194 0 0
                          }
                        }
                      }
                    }
                    JOINT LeftInHandIndex
                    {
                      OFFSET 3.22368 0.508421 1.97842
                      CHANNELS 3 Zrotation Xrotation Yrotation
                      JOINT LeftHandIndex1
                      {
                        OFFSET 5.21684 -0.091368 0.999158
                        CHANNELS 3 Zrotation Xrotation Yrotation
                        JOINT LeftHandIndex2
                        {
                          OFFSET 3.61937 0 0
                          CHANNELS 3 Zrotation Xrotation Yrotation
                          JOINT LeftHandIndex3
                          {
                            OFFSET 2.0521 0 0
                            CHANNELS 3 Zrotation Xrotation Yrotation
                            End Site
                            {
                              OFFSET 1.805 0 0
                            }
                          }
                        }
                      }
                    }
                    JOINT LeftInHandMiddle
                    {
                      OFFSET 3.38211 0.517263 0.756737
                      CHANNELS 3 Zrotation Xrotation Yrotation
                      JOINT LeftHandMiddle1
                      {
                        OFFSET 5.17411 -0.084 0.313895
                        CHANNELS 3 Zrotation Xrotation Yrotation
                        JOINT LeftHandMiddle2
                        {
                          OFFSET 3.94947 0 0
                          CHANNELS 3 Zrotation Xrotation Yrotation
                          JOINT LeftHandMiddle3
                          {
                            OFFSET 2.47579 0 0
                            CHANNELS 3 Zrotation Xrotation Yrotation
                            End Site
                            {
                              OFFSET 1.975 0 0
                            }
                          }
                        }
                      }
                    }
                    JOINT LeftInHandRing
                    {
                      OFFSET 3.36516 0.537895 -0.128947
                      CHANNELS 3 Zrotation Xrotation Yrotation
                      JOINT LeftHandRing1
                      {
                        OFFSET 4.63474 -0.022105 -0.478947
                        CHANNELS 3 Zrotation Xrotation Yrotation
                        JOINT LeftHandRing2
                        {
                          OFFSET 3.44238 0 0
                          CHANNELS 3 Zrotation Xrotation Yrotation
                          JOINT LeftHandRing3
                          {
                            OFFSET 2.3881 0 0
                            CHANNELS 3 Zrotation Xrotation Yrotation
                            End Site
                            {
                              OFFSET 1.857 0 0
                            }
                          }
                        }
                      }
                    }
                    JOINT LeftInHandPinky
                    {
                      OFFSET 3.16105 0.469368 -1.20179
                      CHANNELS 3 Zrotation Xrotation Yrotation
                      JOINT LeftHandPinky1
                      {
                        OFFSET 4.14105 -0.022105 -1.09053
                        CHANNELS 3 Zrotation Xrotation Yrotation
                        JOINT LeftHandPinky2
                        {
                          OFFSET 2.75653 0 0
                          CHANNELS 3 Zrotation Xrotation Yrotation
                          JOINT LeftHandPinky3
                          {
                            OFFSET 1.74189 0 0
                            CHANNELS 3 Zrotation Xrotation Yrotation
                            End Site
                            {
                              OFFSET 1.645 0 0
                            }
                          }
                        }
                      }
                    }
                  }
                }
              }
            }
          }
        }
      }
    }
  }
}
MOTION
Frames: 2
Frame Time: 0.00833333
4.500000000000000000e+02 0.000000000000000000e+00 0.000000000000000000e+00 0.000000000000000000e+00 0.000000000000000000e+00 0.000000000000000000e+00 -6.172880532504788631e-01 -1.211744788186341626e-01 -1.077229142741678469e+00 1.470706929844894040e+00 7.672796255366762241e-02 2.122720853124664409e+00 1.636799422858950248e-01 4.510444694607236571e-02 4.835713197775251201e-03 -1.882981978722839123e-01 -2.692626996995541866e-01 1.718518402521115762e+00 2.419491488588160488e-01 1.008054953095436801e+00 2.145715254219831891e+00 1.680946398524427177e-01 -5.797175156302893928e-01 2.186229224635942714e+00 2.000329179650361056e+00 -4.274868246271036343e-01 -1.072959002713796739e+00 -6.644633457905180229e-01 1.194397076923585793e-01 -9.925819992454640861e-01 -1.898772544007071017e-01 -1.052161685529274214e-02 -2.836932534544915341e-01 -2.847261888866668422e-01 -4.284503073318025601e-01 -5.672163350416250527e-01 6.645018872135283194e-02 6.065500307542732727e-01 3.662621945249992100e-02 8.123764523574562579e-01 -3.212406033896442636e+00 -1.028089440883160205e-01 3.565068623732273179e-01 -3.642619600005445601e-01 1.853093293189355339e+00 -5.552735178883529965e-01 -1.042878820367614395e-01 1.942296670814130488e+00 7.847142091822563170e-01 2.729094219662469012e+00 1.692285288872847904e-01 4.578051161218117215e+01 5.982601175706917296e+00 -2.354105258934720553e+02 4.905935932498550200e-01 5.004959140562130315e+00 3.878260146188189594e+00 0.000000000000000000e+00 0.000000000000000000e+00 0.000000000000000000e+00 -8.421226746216497243e-15 4.170317430165833510e-15 0.000000000000000000e+00 -1.662278120604865418e-15 4.120025201516254648e-15 0.000000000000000000e+00 -1.708715631305999977e-14 -2.176130983015606136e-15 -2.935765879873967961e-15 0.000000000000000000e+00 0.000000000000000000e+00 0.000000000000000000e+00 0.000000000000000000e+00 1.575153271304543588e-15 1.715506573585495689e-14 0.000000000000000000e+00 8.668671201363675732e-15 4.417709458163974848e-14 -1.708715631305999977e-14 -2.176130983015606136e-15 -2.935765879873967961e-15 0.000000000000000000e+00 -2.096627694869618187e-15 1.569844786568684513e-14 0.000000000000000000e+00 4.827209968240833679e-15 8.681498510354350632e-15 0.000000000000000000e+00 7.929234153483338102e-15 6.160313379378284966e-14 -1.708715631305999977e-14 -2.176130983015606136e-15 -2.935765879873967961e-15 0.000000000000000000e+00 0.000000000000000000e+00 0.000000000000000000e+00 0.000000000000000000e+00 1.125759772929269564e-14 1.784441486041318631e-14 0.000000000000000000e+00 1.069088342198981176e-14 5.461172592066208029e-14 -1.708715631305999977e-14 -2.176130983015606136e-15 -2.935765879873967961e-15 0.000000000000000000e+00 0.000000000000000000e+00 0.000000000000000000e+00 0.000000000000000000e+00 -4.636749651385778859e-15 2.797179904531629539e-14 0.000000000000000000e+00 2.795069826139822272e-15 -1.842050386540576041e-14 1.131628996941834941e+00 -1.833051456120176281e+00 3.784221205955486500e+00 4.109989125607325100e-01 4.669223002234197950e-01 -6.571702352945351100e-01 -3.949598167142279181e-01 1.725355386250539302e+00 -8.104251054913734764e-01 4.913868630564722118e+00 5.068541438869618165e-01 -4.306847732856621036e+00 0.000000000000000000e+00 0.000000000000000000e+00 0.000000000000000000e+00 -1.542428655987067123e-14 5.798440367405914867e-15 0.000000000000000000e+00 -1.610250809316580627e-14 3.901672251981302795e-15 0.000000000000000000e+00 1.389522005661571670e-15 2.310350306929807498e-15 3.807719337833351315e-15 0.000000000000000000e+00 0.000000000000000000e+00 0.000000000000000000e+00 0.000000000000000000e+00 -1.396404888823361223e-14 4.584249018139259186e-14 0.000000000000000000e+00 -5.690134126351375603e-15 -1.173368229220305872e-14 1.389522005661571670e-15 2.310350306929807498e-15 3.807719337833351315e-15 0.000000000000000000e+00 7.471304126664862329e-15 -2.848052728514760953e-14 0.000000000000000000e+00 -2.184279581862344702e-14 8.322738249232089056e-14 0.000000000000000000e+00 2.190154652603113440e-15 -6.221876630095514348e-15 1.389522005661571670e-15 2.310350306929807498e-15 3.807719337833351315e-15 0.000000000000000000e+00 0.000000000000000000e+00 0.000000000000000000e+00 0.000000000000000000e+00 -6.830583733469495114e-14 3.979249955215629736e-13 0.000000000000000000e+00 9.539190911867597757e-17 -9.254112212130013987e-15 1.389522005661571670e-15 2.310350306929807498e-15 3.807719337833351315e-15 0.000000000000000000e+00 0.000000000000000000e+00 0.000000000000000000e+00 0.000000000000000000e+00 1.459102267534770829e-14 -2.761014042898746246e-14 0.000000000000000000e+00 -3.922511565263936713e-15 -1.623285774610763612e-14
4.500000000000000000e+02 0.000000000000000000e+00 0.000000000000000000e+00 0.000000000000000000e+00 0.000000000000000000e+00 0.000000000000000000e+00 -5.658589996301363056e-01 -7.989976604710632979e-02 -9.934224561622390093e-01 1.336871558697383389e+00 1.316716410361765677e-01 2.102801266671914249e+00 5.566247868858060360e-02 8.578916532212524371e-02 9.004041111217381266e-02 -7.870665294125012146e-02 -3.983006214456559224e-01 1.536756164542054437e+00 1.646554931924674725e-01 8.824847147201623221e-01 2.171002196937189765e+00 2.993108314478357679e-01 -5.347754514789118119e-01 2.047311275078268711e+00 1.928707970003331162e+00 -4.028841463971742920e-01 -1.143625576972250979e+00 -5.733041546471282501e-01 1.217946603523503146e-01 -8.517409092410934690e-01 -1.640079452616912126e-01 -7.504941597637074593e-03 -2.432007839789285530e-01 -2.448256936667456696e-01 -4.067765716562254941e-01 -4.946617698069237234e-01 6.291763467918110031e-02 6.376053813309499052e-01 5.084599211552096043e-02 8.083636339262761927e-01 -2.813316300351437427e+00 5.399393788810380457e-02 3.457825565908450027e-01 -2.434493897616287483e-01 1.708025614220982202e+00 -7.126200994746499928e-01 -1.313393599873808326e-01 1.300832395615292736e+00 8.096630090867474872e-01 3.064192925249088706e+00 4.756216685496150731e-01 4.184972384651187127e+01 5.886528403776977392e+00 -2.376181940972124380e+02 4.815451575018113717e-01 4.863206675249846178e+00 4.005942579352628208e+00 0.000000000000000000e+00 0.000000000000000000e+00 0.000000000000000000e+00 -9.126046862382078931e-15 5.056869179259057483e-15 0.000000000000000000e+00 -3.498916408326181443e-15 5.160455051414286738e-15 0.000000000000000000e+00 -1.609539874991414257e-14 -2.296431063295177640e-15 -2.901373272544713279e-15 0.000000000000000000e+00 0.000000000000000000e+00 0.000000000000000000e+00 0.000000000000000000e+00 1.774470547287604249e-15 1.282956027273694434e-14 0.000000000000000000e+00 8.290573971130804706e-15 3.642650133838838036e-14 -1.609539874991414257e-14 -2.296431063295177640e-15 -2.901373272544713279e-15 0.000000000000000000e+00 -3.049112255775382376e-15 1.577839509616337051e-14 0.000000000000000000e+00 4.264203817002709828e-15 6.893998076642112539e-15 0.000000000000000000e+00 7.683387234799454305e-15 5.235240997296586363e-14 -1.609539874991414257e-14 -2.296431063295177640e-15 -2.901373272544713279e-15 0.000000000000000000e+00 0.000000000000000000e+00 0.000000000000000000e+00 0.000000000000000000e+00 9.823776231469079437e-15 1.666892270993307915e-14 0.000000000000000000e+00 8.824848807517874435e-15 4.621865509362449875e-14 -1.609539874991414257e-14 -2.296431063295177640e-15 -2.901373272544713279e-15 0.000000000000000000e+00 0.000000000000000000e+00 0.000000000000000000e+00 0.000000000000000000e+00 -4.638421220575374556e-15 2.853269551138028727e-14 0.000000000000000000e+00 1.959749911112777409e-15 -2.486640941451228143e-14 1.098792387666486459e+00 -1.735380025186274544e+00 3.774068029928236090e+00 3.605190956721917583e-01 4.764303907472990374e-01 -6.950393605671554287e-01 -3.365429108535867297e-01 2.098902966990017660e+00 -5.622947585689945793e-01 5.456073167102855948e+00 1.045620878825828104e-01 -3.260763034165444108e+00 0.000000000000000000e+00 0.000000000000000000e+00 0.000000000000000000e+00 -1.865077939495783127e-14 5.066803203080345276e-15 0.000000000000000000e+00 -1.835518804246497451e-14 3.080215948150345338e-15 0.000000000000000000e+00 1.609372098066236445e-15 2.794485430968859450e-15 2.645011293868905324e-15 0.000000000000000000e+00 0.000000000000000000e+00 0.000000000000000000e+00 0.000000000000000000e+00 -1.428388173462488025e-14 4.854796589703146182e-14 0.000000000000000000e+00 -4.616076348443831177e-15 -1.130666799958520741e-14 1.609372098066236445e-15 2.794485430968859450e-15 2.645011293868905324e-15 0.000000000000000000e+00 6.407023030073393227e-15 -2.585847451560106534e-14 0.000000000000000000e+00 -2.064319974585771417e-14 7.849349577974723669e-14 0.000000000000000000e+00 2.769373119262752789e-15 -4.943194758330293552e-15 1.609372098066236445e-15 2.794485430968859450e-15 2.645011293868905324e-15 0.000000000000000000e+00 0.000000000000000000e+00 0.000000000000000000e+00 0.000000000000000000e+00 -6.917027060577754670e-14 4.009696245063671382e-13 0.000000000000000000e+00 -3.938757140055007914e-16 -7.451828341950556153e-15 1.609372098066236445e-15 2.794485430968859450e-15 2.645011293868905324e-15 0.000000000000000000e+00 0.000000000000000000e+00 0.000000000000000000e+00 0.000000000000000000e+00 1.233764419820667213e-14 -2.108880251303844389e-14 0.000000000000000000e+00 -3.565956354929229644e-15 -1.579332515492242646e-14
